PathFileType	4	(X/Y/Z)	s01c0101.trc
DataRate	CameraRate	NumFrames	NumMarkers	Units	OrigDataRate	OrigDataStartFrame	OrigNumFrames
200	200	7	47	mm	200	1250	2000
Frame#	Time	racr			lacr			c7			jug			rlel			rdr			llel			ldr			s2			lic			ric			lasi			rasi			rpsi			lpsi			rgt			lgt			rth1			rth2			rth3			rth4			rlfc			rsh1			rsh2			rsh3			rsh4			rlmal			rmmal			rcal			rtoe			rmt5			lth1			lth2			lth4			lth3			llfc			lsh1			lsh2			lsh3			lsh4			llmal			lcal			ltoe			lmt5			SBIKE			LBIKE			RBIKE			
		X1	Y1	Z1	X2	Y2	Z2	X3	Y3	Z3	X4	Y4	Z4	X5	Y5	Z5	X6	Y6	Z6	X7	Y7	Z7	X8	Y8	Z8	X9	Y9	Z9	X10	Y10	Z10	X11	Y11	Z11	X12	Y12	Z12	X13	Y13	Z13	X14	Y14	Z14	X15	Y15	Z15	X16	Y16	Z16	X17	Y17	Z17	X18	Y18	Z18	X19	Y19	Z19	X20	Y20	Z20	X21	Y21	Z21	X22	Y22	Z22	X23	Y23	Z23	X24	Y24	Z24	X25	Y25	Z25	X26	Y26	Z26	X27	Y27	Z27	X28	Y28	Z28	X29	Y29	Z29	X30	Y30	Z30	X31	Y31	Z31	X32	Y32	Z32	X33	Y33	Z33	X34	Y34	Z34	X35	Y35	Z35	X36	Y36	Z36	X37	Y37	Z37	X38	Y38	Z38	X39	Y39	Z39	X40	Y40	Z40	X41	Y41	Z41	X42	Y42	Z42	X43	Y43	Z43	X44	Y44	Z44	X45	Y45	Z45	X46	Y46	Z46	X47	Y47	Z47	
1250	6.2500	480.391449	1349.267944	-114.431847	522.096924	1294.293823	-407.183807	451.904083	1396.192383	-268.002533	453.743225	1232.004517	-259.036072	538.639526	1079.203613	-12.197923	711.893005	874.103210	-59.437565	554.751099	1040.821167	-536.295288	717.141418	859.471680	-444.037506	-67.346886	1168.576294	-277.376862	101.820412	1174.505859	-444.977234	87.389023	1194.143188	-114.404213	104.752182	1121.919800	-419.594482	116.586533	1146.035889	-146.401840	-41.418667	1214.255371	-228.068863	-41.095421	1209.838379	-333.547363	47.956871	1084.702637	-83.126976	50.046532	1029.300537	-459.471954	162.288071	1005.970459	-69.178551	237.658539	972.112854	-73.083954	316.787628	929.033508	-83.774887	262.263733	1019.938538	-90.413200	395.607758	848.388550	-106.593300	358.706604	734.937012	-74.009148	342.359314	651.730225	-77.024567	316.556915	566.863159	-85.583885	388.865540	641.133667	-113.810310	273.814209	448.964905	-100.382408	313.064636	462.631134	-181.207245	228.489746	416.324066	-155.666565	498.054901	400.662659	-127.853325	391.658173	368.856232	-62.834793	123.149284	922.140930	-466.108643	194.297562	873.000488	-454.964386	226.312302	915.905762	-449.976196	257.564362	817.474609	-437.166504	311.841888	726.374084	-414.615265	228.840897	654.536743	-448.572266	175.692795	586.761719	-442.135864	119.305466	522.746094	-428.102875	218.411621	556.237549	-409.256805	36.998775	429.017944	-412.758453	-18.032799	427.598053	-368.657043	190.558517	242.817291	-373.903015	93.816208	289.241364	-439.898987	-223.639999	893.849182	-251.512299	-12.209693	84.058144	-453.874329	-20.277164	80.838890	-53.900444	
1251	6.2550	480.770477	1348.744629	-114.054077	522.416687	1293.762329	-406.513275	452.165863	1395.674438	-267.364319	454.086151	1231.318359	-258.599548	538.490417	1078.637329	-11.380322	712.141479	873.856934	-59.430733	554.985840	1040.903687	-536.783325	717.115479	859.516174	-444.223419	-67.439201	1167.483276	-275.970764	101.966553	1174.565674	-444.502960	87.050095	1191.942993	-113.182755	104.862709	1121.694214	-418.787659	116.643929	1144.933228	-145.774475	-41.453121	1212.802246	-226.507431	-41.118462	1209.227905	-331.946472	48.186119	1081.590942	-82.400108	51.012360	1030.103516	-458.927979	161.854446	1001.069824	-68.619881	236.250229	965.215271	-72.745071	314.121674	920.060242	-83.750900	262.143311	1012.574646	-89.540756	390.991486	837.402344	-105.587845	355.367157	722.788330	-73.258667	340.581421	639.318787	-76.688721	316.570648	554.049438	-85.418114	386.923706	629.579773	-114.226852	275.603210	436.932739	-99.951889	314.867279	451.014282	-180.806686	230.428848	404.791748	-155.197906	500.296722	390.166626	-127.873711	394.153717	357.625519	-62.782894	125.925308	924.427063	-466.063080	197.798416	876.319397	-455.079041	229.143646	919.618103	-450.121735	261.647827	821.703308	-437.647919	317.486603	731.525452	-415.211487	233.287308	661.570496	-448.751038	178.741547	594.788879	-441.914825	121.606033	531.666931	-428.254608	221.339981	563.608643	-409.434143	37.224304	440.055878	-412.737122	-17.962879	439.457703	-368.600098	188.157928	251.931229	-373.958099	91.961380	299.482269	-439.739685	-223.594742	893.844177	-251.448120	-12.185122	84.065506	-453.872589	-20.265810	80.830902	-53.918812	
1252	6.2600	481.241547	1348.024292	-113.496361	522.703979	1293.097900	-405.822235	452.475616	1395.092163	-266.648682	454.430969	1230.848267	-258.100922	538.363403	1078.004028	-10.398035	712.308960	873.471985	-59.277103	555.154785	1040.858643	-537.358154	717.067932	859.574341	-444.444885	-67.477142	1166.335815	-274.395325	101.456581	1174.259277	-443.318207	86.575745	1189.500122	-111.856697	104.949333	1121.479980	-417.904327	116.634895	1143.333130	-144.203491	-41.401485	1211.319946	-224.882889	-41.473751	1208.818604	-330.214752	48.480659	1078.440430	-81.545097	51.860199	1030.855835	-458.296570	161.241394	996.182129	-68.080864	234.831879	958.272522	-72.014153	311.288788	911.068604	-83.673019	261.957794	1005.044434	-88.729904	386.076569	826.391174	-104.891098	351.996918	711.540649	-72.540436	338.928741	627.671692	-76.484085	316.767212	542.033325	-85.095840	385.816925	619.414124	-113.538361	276.659760	425.080414	-99.281372	316.885712	440.246246	-180.116898	231.922562	393.623810	-154.676865	501.984009	379.425751	-127.671295	396.014313	346.546997	-62.676163	128.649734	926.790222	-466.018036	201.284103	879.829224	-455.266724	231.668427	923.918213	-450.468079	266.228333	826.358521	-438.427368	323.329834	737.196289	-415.825287	237.895798	668.997314	-449.064117	182.281799	603.204651	-442.091644	124.267151	540.814087	-428.404419	224.494049	571.188721	-409.721802	38.141132	451.200500	-412.711151	-17.270397	451.499847	-368.563660	186.362228	261.093475	-373.920288	90.835953	309.985687	-439.701385	-223.558502	893.846130	-251.389679	-12.163491	84.051231	-453.852600	-20.269880	80.831802	-53.903984	
1253	6.2650	481.712524	1347.306396	-112.704773	523.090759	1292.266479	-405.122101	452.870483	1394.533081	-265.882050	454.858948	1230.311279	-257.494659	538.314941	1077.180664	-9.356803	712.121643	872.894531	-58.530590	555.306458	1040.613403	-537.929016	717.033997	859.627991	-444.648254	-67.418312	1165.161499	-272.713989	101.549515	1173.852783	-442.575867	86.311523	1186.976440	-110.495079	105.073631	1121.242188	-416.865295	116.755730	1141.813354	-143.056305	-41.230698	1209.791016	-223.167542	-41.709705	1208.163818	-328.143066	48.828701	1075.334717	-80.521523	52.573627	1031.627441	-457.710541	160.644119	991.487793	-67.374672	233.219757	951.523987	-71.325432	308.226440	902.194702	-83.607971	261.583160	997.615112	-87.882706	381.340607	815.881836	-103.969025	348.445648	701.156677	-71.872520	337.226074	617.123657	-76.006065	316.955780	531.031067	-84.739960	384.166931	609.938477	-113.294983	277.524689	413.623871	-98.853638	317.552185	428.315033	-179.890869	232.950409	382.804230	-154.122406	503.130219	368.449402	-127.486374	397.312927	335.456848	-62.575748	131.315842	929.237000	-465.958466	204.768311	883.643127	-455.627075	234.317719	928.311584	-450.695465	270.559113	831.116272	-439.307495	329.381409	743.534302	-416.382141	242.765167	676.276550	-449.108307	186.153320	611.396790	-442.082367	127.135628	550.078552	-428.473938	227.774139	579.015198	-409.862946	39.591991	462.295654	-412.604553	-15.949037	463.296143	-368.324493	185.232224	270.405731	-373.845520	90.467949	320.599854	-439.596466	-223.522797	893.845825	-251.312210	-12.149203	84.066437	-453.833374	-20.262857	80.817795	-53.884777	
1254	6.2700	482.209625	1346.290894	-111.788338	523.302856	1291.362183	-404.574219	453.337036	1393.927002	-265.015137	455.178772	1229.442749	-256.979858	538.231018	1076.388916	-8.167426	712.200928	872.350525	-58.225815	555.392761	1040.223267	-538.472595	717.014282	859.687134	-444.852295	-67.352684	1164.089111	-270.899628	101.632133	1173.421021	-441.523834	86.181160	1184.376343	-109.067932	105.116112	1121.065918	-415.761353	116.964897	1140.463135	-141.466812	-40.953625	1208.344727	-221.340607	-41.940212	1207.579956	-325.966064	49.323845	1072.250610	-79.441216	53.106079	1032.517578	-457.037354	159.906158	986.699646	-66.612396	231.287888	944.783936	-71.053116	305.250275	893.332092	-83.468269	260.970917	990.012085	-87.296249	376.413391	805.781616	-103.678223	344.633148	691.529419	-71.131866	335.198059	607.227417	-75.407211	316.623413	520.752869	-84.180107	382.207733	600.976379	-112.723694	277.885834	402.527954	-98.456650	318.185211	417.536896	-179.090668	233.475937	372.405365	-153.451263	503.750244	357.199432	-127.419708	397.972595	324.376129	-62.490746	133.916809	931.785034	-465.864594	208.260147	887.575562	-455.992798	237.086060	932.689819	-450.683197	275.238281	836.462219	-440.065765	335.546356	750.464111	-416.949127	247.627197	684.533936	-449.667389	190.185532	620.130981	-442.314911	130.417816	559.570618	-428.557983	231.459656	587.209778	-410.144989	41.682003	473.450684	-412.493286	-13.865813	475.599792	-368.394226	184.759277	279.961121	-373.861389	90.639519	331.434296	-439.414520	-223.480499	893.847839	-251.207092	-12.125067	84.053726	-453.805206	-20.240217	80.798538	-53.873196	
1255	6.2750	482.708588	1345.315308	-110.689056	523.548950	1290.441040	-404.078827	453.835999	1393.339478	-264.200958	455.524994	1228.928955	-256.484894	538.310364	1075.393188	-7.016172	712.272888	871.905579	-57.823685	555.591431	1039.824585	-538.638245	716.992676	859.758972	-444.997437	-67.167274	1163.103638	-269.006042	101.525734	1173.013794	-440.409363	86.195511	1181.849243	-107.560883	105.194984	1120.880981	-414.513062	117.347488	1138.896851	-140.234375	-40.543255	1207.030884	-219.414764	-42.108177	1207.049927	-323.863373	49.774899	1069.311157	-78.353752	53.528313	1033.368530	-456.393890	158.887161	982.017639	-65.805840	228.973663	938.234558	-70.556519	301.656067	884.739380	-83.345703	260.008362	982.670471	-86.386009	371.384033	796.228149	-103.491806	340.985962	682.001892	-70.445183	332.874878	597.588074	-74.576294	315.376526	510.790771	-83.706596	380.216583	592.184692	-112.220795	277.563141	391.794067	-98.184036	317.444641	406.626831	-178.743271	233.486145	362.429657	-152.652100	503.928314	345.800446	-127.552391	398.109924	313.374695	-62.394566	136.444733	934.462463	-465.715759	211.847488	891.883240	-456.401794	239.581436	937.672668	-450.794525	280.046356	842.476501	-440.514404	342.089142	758.058960	-417.633484	252.685028	692.696533	-450.118652	194.443207	628.984070	-442.630096	133.986023	569.127014	-428.549225	235.258270	595.521057	-410.421234	44.159893	484.571869	-412.434143	-11.654476	486.938812	-367.846039	184.960831	289.610138	-373.788025	91.468887	342.183167	-439.314209	-223.448349	893.841248	-251.101974	-12.121716	84.107407	-453.802795	-20.224060	80.788559	-53.874172	
1256	6.2800	483.262482	1344.273926	-109.525398	523.768188	1289.638916	-403.674500	454.382965	1392.780640	-263.349060	455.898560	1228.255981	-255.737930	538.508362	1074.297363	-5.850332	712.380798	871.298523	-57.479584	555.557861	1039.302368	-539.045288	716.913757	859.784485	-445.094452	-67.167755	1162.430420	-266.837402	101.450836	1172.551514	-439.086700	86.400284	1179.480469	-106.023079	105.160370	1120.747803	-413.331848	117.847214	1137.597534	-139.100266	-40.073441	1205.952026	-217.355820	-42.099266	1206.675537	-321.758362	50.256516	1066.755005	-77.276901	53.767906	1034.317017	-455.752869	157.671021	977.306152	-64.936165	226.566040	931.736328	-69.951836	297.677765	876.445740	-83.087517	259.065094	975.376404	-85.409126	366.272400	787.193665	-103.258049	337.070801	672.666626	-69.775124	330.188141	587.996338	-73.970901	313.602692	501.106903	-82.965210	376.290710	583.389648	-112.209091	276.789154	381.701782	-97.763237	316.390167	396.437469	-178.016052	233.003418	352.774811	-151.813873	503.592621	333.944061	-128.462265	397.652740	302.546661	-62.270542	138.889755	937.306152	-465.494354	215.564148	896.582764	-456.939941	241.965637	943.088318	-450.776215	285.296478	848.949951	-441.212311	348.986298	766.182617	-419.108826	257.768494	701.038208	-450.551575	198.937668	637.969543	-442.878235	137.877563	579.003906	-428.627960	239.398285	604.177856	-410.832428	47.115929	495.683533	-412.237244	-9.327217	498.440338	-367.622925	185.779343	299.227722	-373.675964	92.905418	352.886566	-439.145721	-223.403320	893.859924	-250.989899	-12.102237	84.106697	-453.769684	-20.215855	80.782806	-53.851463	
